<svg xmlns="http://www.w3.org/2000/svg" width="40" height="40" viewBox="0 0 40 40"><g transform="translate(0.195)"><rect width="40" height="40" transform="translate(-0.195)" fill="none"/><path d="M632.57,663.019a5.527,5.527,0,1,1-2.16.435,5.527,5.527,0,0,1,2.16-.435m0-2.019h0a7.57,7.57,0,0,0-7.57,7.57h0a7.57,7.57,0,0,0,7.57,7.57h0a7.57,7.57,0,0,0,7.57-7.57h0A7.57,7.57,0,0,0,632.57,661Z" transform="translate(-612.537 -647.656)" fill="#5e81ac"/><path d="M222.685,243.019v2.942l1.458.422a11.034,11.034,0,0,1,2.261.938l1.329.733,1.073-1.074,1.008-1.008,2.313,2.313-1.008,1.008-1.074,1.073.735,1.329a11.035,11.035,0,0,1,.938,2.261l.422,1.458h2.941v3.27h-2.942l-.422,1.458a11.034,11.034,0,0,1-.938,2.261l-.733,1.329,1.074,1.073,1.008,1.008-2.313,2.313-1.008-1.008-1.073-1.074-1.329.735a11.035,11.035,0,0,1-2.261.938l-1.458.422v2.941h-3.271v-2.942l-1.458-.422a11.033,11.033,0,0,1-2.261-.938l-1.329-.733-1.073,1.074-1.008,1.008-2.313-2.313,1.008-1.008,1.074-1.073-.733-1.329a11.045,11.045,0,0,1-.938-2.261l-.422-1.458h-2.942v-3.27h2.942l.422-1.458a11.044,11.044,0,0,1,.938-2.261l.733-1.329-1.074-1.074-1.008-1.008,2.313-2.313,1.008,1.008,1.073,1.074,1.329-.733a11.034,11.034,0,0,1,2.261-.938l1.458-.422v-2.942h3.27m.662-2.019h-4.594a1.357,1.357,0,0,0-1.357,1.357v2.086a13.034,13.034,0,0,0-2.676,1.109l-1.476-1.475a1.357,1.357,0,0,0-1.92,0l-3.248,3.248a1.357,1.357,0,0,0,0,1.92l1.475,1.476a13.035,13.035,0,0,0-1.109,2.676h-2.086A1.357,1.357,0,0,0,205,254.753v4.594a1.357,1.357,0,0,0,1.357,1.357h2.086a13.035,13.035,0,0,0,1.109,2.675l-1.475,1.476a1.357,1.357,0,0,0,0,1.92l3.248,3.248a1.357,1.357,0,0,0,1.92,0l1.476-1.475a13.033,13.033,0,0,0,2.676,1.109v2.086a1.357,1.357,0,0,0,1.357,1.357h4.594a1.357,1.357,0,0,0,1.357-1.357v-2.086a13.036,13.036,0,0,0,2.676-1.109l1.476,1.475a1.357,1.357,0,0,0,1.92,0l3.248-3.248a1.357,1.357,0,0,0,0-1.92l-1.475-1.476a13.034,13.034,0,0,0,1.109-2.675h2.086a1.357,1.357,0,0,0,1.357-1.357v-4.594a1.357,1.357,0,0,0-1.357-1.357h-2.086a13.034,13.034,0,0,0-1.109-2.676l1.475-1.476a1.357,1.357,0,0,0,0-1.92l-3.248-3.248a1.357,1.357,0,0,0-1.92,0l-1.476,1.475a13.034,13.034,0,0,0-2.676-1.109v-2.086A1.357,1.357,0,0,0,223.346,241Z" transform="translate(-201.016 -236.135)" fill="#5e81ac"/></g></svg>