<svg xmlns="http://www.w3.org/2000/svg" width="40" height="40" viewBox="0 0 40 40"><rect width="40" height="40" fill="none"/><rect width="12.747" height="4.237" rx="2.118" transform="matrix(0.643, -0.766, 0.766, 0.643, 24.613, 14.644)" fill="#5e81ac"/><path d="M1122.469,769.076l.854-2.9a.79.79,0,0,1,1.266-.382l1.849,1.552a.79.79,0,0,1-.156,1.313l-2.7,1.344A.79.79,0,0,1,1122.469,769.076Z" transform="translate(-1099.874 -750.224)" fill="#5e81ac"/><path d="M447.806,512.894h-18.02a3.162,3.162,0,0,1-3.216-3.1V493.1a3.161,3.161,0,0,1,3.216-3.1l11.8.009a1.186,1.186,0,1,1,0,2.372h0l-11.8-.009a.791.791,0,0,0-.842.725v16.7a.792.792,0,0,0,.844.725h18.02a.793.793,0,0,0,.844-.725l.009-12.982a1.186,1.186,0,0,1,1.186-1.186h0a1.186,1.186,0,0,1,1.186,1.186L451.02,509.8A3.16,3.16,0,0,1,447.806,512.894Z" transform="translate(-417.996 -480.151)" fill="#5e81ac"/></svg>