<svg xmlns="http://www.w3.org/2000/svg" width="40" height="40" viewBox="0 0 40 40"><rect width="40" height="40" fill="none"/><path d="M412.521,314.452a1.3,1.3,0,0,1,1.3,1.3V336.6a1.3,1.3,0,0,1-1.3,1.3H394.838a1.3,1.3,0,0,1-1.3-1.3V315.748a1.3,1.3,0,0,1,1.3-1.3h17.683m0-2.042H394.838a3.338,3.338,0,0,0-3.338,3.337V336.6a3.338,3.338,0,0,0,3.338,3.338h17.683a3.338,3.338,0,0,0,3.338-3.338V315.748a3.338,3.338,0,0,0-3.338-3.338Z" transform="translate(-383.664 -306.157)" fill="#5e81ac"/><rect width="15.097" height="0.482" rx="0.241" transform="translate(12.467 12.366)"/><path d="M599.187,578.36H584.271a.881.881,0,0,0-.881.881v.3a.881.881,0,0,0,.881.881h14.916a.881.881,0,0,0,.881-.881v-.3A.881.881,0,0,0,599.187,578.36Z" transform="translate(-571.713 -566.784)" fill="#5e81ac"/><rect width="15.182" height="0.567" rx="0.283" transform="translate(12.425 16.992)"/><path d="M599.187,811.56H584.271a.881.881,0,0,0-.881.881v.3a.881.881,0,0,0,.881.881h14.916a.881.881,0,0,0,.881-.881v-.3A.881.881,0,0,0,599.187,811.56Z" transform="translate(-571.713 -795.316)" fill="#5e81ac"/><rect width="8.99" height="0.611" rx="0.306" transform="translate(12.402 21.602)"/><path d="M592.95,1043h-8.679a.881.881,0,0,0-.881.881v.3a.881.881,0,0,0,.881.881h8.679a.881.881,0,0,0,.881-.881v-.3A.881.881,0,0,0,592.95,1043Z" transform="translate(-571.713 -1022.124)" fill="#5e81ac"/></svg>