<svg xmlns="http://www.w3.org/2000/svg" width="55" height="22" viewBox="0 0 55 22"><path d="M.609,300.5H3.868l-.609,3.441H0Z" transform="translate(0 -282.246)" fill="#4c566a"/><path d="M133.41,20.359a1,1,0,0,1-.183.182A4.969,4.969,0,0,1,129.238,22C125.705,22,124,20.481,124,17.351a15.26,15.26,0,0,1,.274-2.644l.4-2.279c.822-4.619,2.68-6.472,6.487-6.472a6.706,6.706,0,0,1,3.259.729,2.848,2.848,0,0,1,.579.486l.244.182L136.548,0h3.106l-3.837,21.7h-2.406Zm-6.091-5.439a9.893,9.893,0,0,0-.183,1.762c0,1.884.883,2.826,2.711,2.826,2.223,0,3.5-1.337,3.99-4.133l.487-2.8a9.188,9.188,0,0,0,.152-1.4,2.476,2.476,0,0,0-2.8-2.735c-2.223,0-3.441,1.4-4.02,4.588Z" transform="translate(-116.447)" fill="#4c566a"/><path d="M407.67,104.457c.792-4.568,2.893-6.457,7.218-6.457,4.02,0,5.939,1.553,5.939,4.812a16.345,16.345,0,0,1-.244,2.467l-.426,2.345c-.792,4.568-2.924,6.457-7.218,6.457-4.02,0-5.939-1.584-5.939-4.842a14.942,14.942,0,0,1,.244-2.406Zm9.837.609a10.538,10.538,0,0,0,.183-1.8c0-1.858-.975-2.771-2.924-2.771-2.345,0-3.533,1.34-4.111,4.568l-.335,1.949a9.934,9.934,0,0,0-.183,1.766c0,1.888.944,2.8,2.924,2.8,2.345,0,3.533-1.34,4.111-4.568Z" transform="translate(-382.026 -92.08)" fill="#4c566a"/><path d="M698.7,111.7a6.689,6.689,0,0,1-5.573,2.376c-3.655,0-5.634-1.827-5.634-5.177a19.352,19.352,0,0,1,.274-2.741l.183-1.127c.457-2.528,1.005-3.868,2.071-5.025A6.383,6.383,0,0,1,695.012,98c2.771,0,4.507,1.005,5.3,3.046l-2.528,1.005a2.635,2.635,0,0,0-2.71-1.553c-2.223,0-3.472,1.492-4.081,4.873l-.244,1.431a11.542,11.542,0,0,0-.152,1.766c0,2.041.914,3.015,2.863,3.015a3.881,3.881,0,0,0,3.228-1.523Z" transform="translate(-645.312 -92.08)" fill="#4c566a"/></svg>