<svg xmlns="http://www.w3.org/2000/svg" width="815" height="703" viewBox="0 0 815 703"><g transform="translate(-330 -12.5)"><g transform="translate(369 12.5)"><path d="M382.712-99.224C442.735-24.7,483.274,30.2,530.7,102.965,577.932,175.73,632.248,266.5,594.857,320.673S428.369,392.56,316.589,405.3s-206.241,20.644-285.156-1.61c-78.915-22.108-142.283-74.229-172.2-131.621s-26.567-119.908-27.354-194.722c-.984-74.814-6.1-161.927,48.412-237.034,54.512-75.254,168.653-138.648,265.673-123.275C242.988-267.739,322.69-173.6,382.712-99.224" transform="translate(168.693 285.282)" fill="#d8dee9"/></g><path d="M0,0H636.394a0,0,0,0,1,0,0V47a15,15,0,0,1-15,15H15A15,15,0,0,1,0,47V0A0,0,0,0,1,0,0Z" transform="translate(400 519)" fill="#c9c9c9"/><g transform="translate(400 147)" fill="#ededed"><path d="M 626.8939819335938 362.5 L 9.500051498413086 362.5 L 9.500051498413086 15 C 9.500051498413086 11.96727275848389 11.96086978912354 9.5 14.98568725585938 9.5 L 621.408203125 9.5 C 624.4330444335938 9.5 626.8939819335938 11.96727275848389 626.8939819335938 15 L 626.8939819335938 362.5 Z" stroke="none"/><path d="M 18.99993896484375 19 L 18.99993896484375 353 L 617.3938598632812 353 L 617.3938598632812 19 L 18.99993896484375 19 M 14.98565673828125 0 L 621.4081420898438 0 C 629.6846313476562 0 636.3938598632812 6.7156982421875 636.3938598632812 15 L 636.3938598632812 372 L -6.103515625e-05 372 L -6.103515625e-05 15 C -6.103515625e-05 6.7156982421875 6.7093505859375 0 14.98565673828125 0 Z" stroke="none" fill="#434c5e"/></g><circle cx="11" cy="11" r="11" transform="translate(709.71 541)" fill="#434c5e"/><rect width="175" height="46" transform="translate(633.712 581)" fill="#bababa"/><rect width="247" height="18" transform="translate(594.718 627)" fill="#c9c9c9"/><rect width="371" height="61" rx="15" transform="translate(524.734 303)" fill="#fff"/><g transform="translate(549.649 327.7)"><path d="M6.8-38.3l1.15,6.6L2.8-35.95.85-33.05l6.4,2.5L1-28.2l1.8,3L8-29.5,6.8-22.8h3.7L9.3-29.5l5.15,4.3,1.8-3-6.2-2.35,6.4-2.5-1.95-2.9L9.35-31.7l1.15-6.6Z" transform="translate(91.15 38.3)" fill="#434c5e" stroke="#434c5e" stroke-width="1"/><path d="M6.8-38.3l1.15,6.6L2.8-35.95.85-33.05l6.4,2.5L1-28.2l1.8,3L8-29.5,6.8-22.8h3.7L9.3-29.5l5.15,4.3,1.8-3-6.2-2.35,6.4-2.5-1.95-2.9L9.35-31.7l1.15-6.6Z" transform="translate(-0.85 38.3)" fill="#434c5e" stroke="#434c5e" stroke-width="1"/><path d="M6.8-38.3l1.15,6.6L2.8-35.95.85-33.05l6.4,2.5L1-28.2l1.8,3L8-29.5,6.8-22.8h3.7L9.3-29.5l5.15,4.3,1.8-3-6.2-2.35,6.4-2.5-1.95-2.9L9.35-31.7l1.15-6.6Z" transform="translate(22.15 38.3)" fill="#434c5e" stroke="#434c5e" stroke-width="1"/><path d="M6.8-38.3l1.15,6.6L2.8-35.95.85-33.05l6.4,2.5L1-28.2l1.8,3L8-29.5,6.8-22.8h3.7L9.3-29.5l5.15,4.3,1.8-3-6.2-2.35,6.4-2.5-1.95-2.9L9.35-31.7l1.15-6.6Z" transform="translate(45.15 38.3)" fill="#434c5e" stroke="#434c5e" stroke-width="1"/><path d="M6.8-38.3l1.15,6.6L2.8-35.95.85-33.05l6.4,2.5L1-28.2l1.8,3L8-29.5,6.8-22.8h3.7L9.3-29.5l5.15,4.3,1.8-3-6.2-2.35,6.4-2.5-1.95-2.9L9.35-31.7l1.15-6.6Z" transform="translate(68.15 38.3)" fill="#434c5e" stroke="#434c5e" stroke-width="1"/><path d="M6.8-38.3l1.15,6.6L2.8-35.95.85-33.05l6.4,2.5L1-28.2l1.8,3L8-29.5,6.8-22.8h3.7L9.3-29.5l5.15,4.3,1.8-3-6.2-2.35,6.4-2.5-1.95-2.9L9.35-31.7l1.15-6.6Z" transform="translate(114.15 38.3)" fill="#434c5e" stroke="#434c5e" stroke-width="1"/><path d="M6.8-38.3l1.15,6.6L2.8-35.95.85-33.05l6.4,2.5L1-28.2l1.8,3L8-29.5,6.8-22.8h3.7L9.3-29.5l5.15,4.3,1.8-3-6.2-2.35,6.4-2.5-1.95-2.9L9.35-31.7l1.15-6.6Z" transform="translate(137.15 38.3)" fill="#434c5e" stroke="#434c5e" stroke-width="1"/></g><g transform="translate(841.521 396)"><g transform="translate(49)" fill="none" stroke="#434c5e" stroke-width="10"><rect width="70" height="56" rx="15" stroke="none"/><rect x="5" y="5" width="60" height="46" rx="10" fill="none"/></g><g transform="translate(0 32)" fill="#ebcb8b" stroke="#f0c56f" stroke-width="13"><rect width="168" height="124" rx="15" stroke="none"/><rect x="6.5" y="6.5" width="155" height="111" rx="8.5" fill="none"/></g><g transform="translate(71 73)"><circle cx="13.5" cy="13.5" r="13.5" fill="#434c5e"/><rect width="11" height="27" rx="5.5" transform="translate(8 15)" fill="#434c5e"/></g></g><g transform="translate(330 382)"><rect width="220" height="254" rx="8" fill="#fff"/><g transform="translate(33 58)"><rect width="143" height="13" rx="6.5" transform="translate(0 74)" fill="#dedede"/><rect width="155" height="13" rx="6.5" transform="translate(0 32)" fill="#dedede"/><rect width="120" height="13" rx="6.5" transform="translate(0 53)" fill="#dedede"/><rect width="149" height="13" rx="6.5" transform="translate(0 116)" fill="#dedede"/><rect width="96" height="13" rx="6.5" transform="translate(0 95)" fill="#dedede"/><text transform="translate(0.5 20)" fill="#434c5e" stroke="#434c5e" stroke-width="1" font-size="21" font-family="ArialRoundedMTBold, Arial Rounded MT Bold"><tspan x="0" y="0">Document</tspan></text></g><path d="M8,0H212a8,8,0,0,1,8,8V41a0,0,0,0,1,0,0H0a0,0,0,0,1,0,0V8A8,8,0,0,1,8,0Z" fill="#434c5e"/></g></g></svg>